# xmcd
#
# Track frame offsets:
#	150
#	19749
#	36491
#	52514
#	66828
#	84887
#	102442
#	115822
#	132946
#	148786
#	165927
#	184245
#	200146
#	217646
#	234084
#	250564
#	267420
#
# Disc length: 3846 seconds
#
# Revision: 4
# Processed by: cddbd v1.5.1PL0 Copyright (c) Steve Scherf et al.
# Submitted via: audiograbber 1.83.01
#
DISCID=df0f0411
DTITLE=1997-10 Country Radio - 1997-10 Country Radio
DYEAR=1997
DGENRE=Country
TTITLE0=Alan Jackson - Between The Devil and Me
TTITLE1=Alabama - Of Course I'm Alright
TTITLE2=Shania Twain - Love Gets Me Every Time
TTITLE3=George Strait - Today My World Slipped Away
TTITLE4=Toby Keith - I'm So Happy I Can't Stop Crying
TTITLE5=Tracy Lawrence - The Coast Is Clear
TTITLE6=Tracy Byrd - Good Ol' Fashioned Love
TTITLE7=LeAnn Rimes - On the Side Of Angels
TTITLE8=John Michael Montgomery - Angel In My Eyes
TTITLE9=The Buffalo Club - Heart Hold On
TTITLE10=John Anderson - Small Town
TTITLE11=Thompson Brothers Band - Drive Me Crazy
TTITLE12=Blackhawk - Postmarked Birmingham
TTITLE13=Kris Tyler - What A Woman Knows
TTITLE14=Big House - Love Ain't Easy
TTITLE15=Delbert McClinton - Sending Me Angels
TTITLE16=John Keaton - Just 2 Hearts
EXTD=
EXTT0=
EXTT1=
EXTT2=
EXTT3=
EXTT4=
EXTT5=
EXTT6=
EXTT7=
EXTT8=
EXTT9=
EXTT10=
EXTT11=
EXTT12=
EXTT13=
EXTT14=
EXTT15=
EXTT16=
PLAYORDER=
